Coordinates
version=1
nRows=65
nColumns=12
inDegrees=yes

Units are S.I. units (second, meters, Newtons, ...)
Angles are in degrees

endheader
time	SC_y	SC_z	SC_x	AC_y	AC_z	AC_x	GH_y	GH_z	GH_yy	EL_x	PS_y
       0.0              -16.79          4.457           69.0          55.57         -17.33         -8.671         -114.9          14.02           27.3          13.49          128.8
   0.02129               -16.8          4.457          68.99          55.57         -17.33         -8.667         -114.8          14.03          27.29          13.49          128.7
   0.04258               -16.8          4.457          68.98          55.57         -17.33         -8.664         -114.8          14.03          27.28          13.49          128.7
   0.06387              -16.81          4.457          68.98          55.57         -17.33          -8.66         -114.8          14.04          27.27           13.5          128.7
   0.08515              -16.81          4.457          68.97          55.57         -17.33         -8.655         -114.7          14.05          27.25           13.5          128.7
    0.1064              -16.82          4.457          68.96          55.57         -17.33         -8.651         -114.7          14.05          27.24           13.5          128.7
    0.1277              -16.83          4.457          68.95          55.57         -17.33         -8.646         -114.6          14.06          27.22          13.51          128.7
     0.149              -16.84          4.457          68.94          55.57         -17.33         -8.641         -114.5          14.07           27.2          13.51          128.7
    0.1703              -16.84          4.458          68.93          55.56         -17.33         -8.635         -114.5          14.08          27.18          13.51          128.7
    0.1916              -16.85          4.458          68.92          55.56         -17.33          -8.63         -114.4          14.09          27.17          13.52          128.7
    0.2129              -16.86          4.458          68.91          55.56         -17.33         -8.623         -114.3           14.1          27.14          13.52          128.6
    0.2342              -16.87          4.458           68.9          55.56         -17.33         -8.616         -114.3          14.11          27.12          13.53          128.6
    0.2555              -16.88          4.458          68.89          55.56         -17.33         -8.609         -114.2          14.12           27.1          13.53          128.6
    0.2768               -16.9          4.458          68.87          55.56         -17.33         -8.601         -114.1          14.14          27.07          13.54          128.6
     0.298              -16.91          4.458          68.86          55.55         -17.33         -8.592         -114.0          14.15          27.04          13.55          128.6
    0.3193              -16.92          4.459          68.84          55.55         -17.33         -8.583         -113.9          14.17          27.01          13.55          128.6
    0.3406              -16.94          4.459          68.82          55.55         -17.32         -8.573         -113.8          14.18          26.98          13.56          128.5
    0.3619              -16.96          4.459           68.8          55.55         -17.32         -8.562         -113.6           14.2          26.94          13.57          128.5
    0.3832              -16.97          4.459          68.78          55.54         -17.32          -8.55         -113.5          14.22           26.9          13.58          128.5
    0.4045              -16.99          4.459          68.75          55.54         -17.32         -8.536         -113.3          14.24          26.86          13.59          128.4
    0.4258              -17.02           4.46          68.73          55.54         -17.32         -8.522         -113.2          14.27          26.81           13.6          128.4
    0.4471              -17.04           4.46           68.7          55.53         -17.32         -8.506         -113.0          14.29          26.76          13.61          128.4
    0.4683              -17.07           4.46          68.67          55.53         -17.32         -8.488         -112.8          14.32           26.7          13.63          128.3
    0.4896               -17.1          4.461          68.63          55.52         -17.31         -8.469         -112.5          14.36          26.63          13.64          128.3
    0.5109              -17.13          4.461          68.59          55.52         -17.31         -8.447         -112.3          14.39          26.56          13.66          128.2
    0.5322              -17.17          4.462          68.55          55.51         -17.31         -8.423         -112.0          14.43          26.48          13.68          128.2
    0.5535              -17.21          4.462           68.5           55.5         -17.31         -8.395         -111.7          14.48          26.39           13.7          128.1
    0.5748              -17.25          4.463          68.44           55.5          -17.3         -8.365         -111.3          14.53          26.29          13.72          128.0
    0.5961              -17.31          4.464          68.38          55.49          -17.3          -8.33         -110.9          14.58          26.17          13.75          128.0
    0.6174              -17.36          4.464          68.31          55.48          -17.3         -8.291         -110.5          14.65          26.04          13.78          127.9
    0.6387              -17.43          4.465          68.22          55.46         -17.29         -8.246         -110.0          14.72          25.89          13.81          127.8
    0.6599              -17.51          4.466          68.13          55.45         -17.29         -8.195         -109.4          14.81          25.72          13.85          127.6
    0.6812               -17.6          4.467          68.02          55.44         -17.28         -8.135         -108.7           14.9          25.53           13.9          127.5
    0.7025               -17.7          4.469           67.9          55.42         -17.27         -8.066         -107.9          15.02           25.3          13.95          127.3
    0.7238              -17.82           4.47          67.75           55.4         -17.26         -7.986         -107.0          15.15          25.03          14.01          127.2
    0.7451              -17.97          4.472          67.58          55.37         -17.25         -7.891         -105.9          15.31          24.72          14.09          126.9
    0.7664              -18.14          4.474          67.37          55.35         -17.24         -7.778         -104.6          15.49          24.34          14.17          126.7
    0.7877              -18.34          4.477          67.12          55.31         -17.23         -7.642         -103.0          15.72          23.89          14.28          126.4
     0.809              -18.59           4.48          66.82          55.27         -17.21         -7.478         -101.1          15.99          23.35           14.4          126.0
    0.8303              -18.89          4.484          66.46          55.22         -17.19         -7.278         -98.77          16.32          22.68          14.56          125.5
    0.8515              -19.27          4.489          66.01          55.15         -17.17         -7.031         -95.91          16.73          21.87          14.75          124.9
    0.8728              -19.73          4.495          65.45          55.08         -17.13         -6.722         -92.34          17.23          20.84          14.98          124.2
    0.8941              -20.32          4.502          64.74          54.98         -17.09         -6.334         -87.85          17.87          19.56          15.28          123.3
    0.9154              -21.06          4.512          63.84          54.85         -17.04          -5.84         -82.13          18.69          17.92          15.66          122.1
    0.9367              -22.01          4.524          62.69          54.69         -16.98         -5.209         -74.82          19.73          15.83          16.15          120.7
     0.958              -23.24           4.54          61.21          54.48          -16.9         -4.398         -65.44          21.07          13.14          16.77          118.8
    0.9793               -24.8           4.56          59.32          54.22         -16.79         -3.362         -53.45          22.77          9.705          17.56          116.4
     1.001              -26.76          4.586          56.95          53.89         -16.66          -2.06         -38.38          24.92          5.388          18.56          113.3
     1.022              -29.16          4.617          54.06          53.48         -16.49        -0.4729         -20.01          27.53         0.1278          19.78          109.6
     1.043              -31.93          4.653          50.71          53.01          -16.3          1.367          1.274          30.57          -5.97          21.19          105.3
     1.064              -34.94          4.692          47.08           52.5          -16.1          3.358          24.33          33.85         -12.57          22.72          100.7
     1.086              -37.94          4.731          43.45          51.99         -15.89           5.35          47.38          37.13         -19.17          24.25           96.0
     1.107              -40.72          4.766           40.1          51.52          -15.7           7.19          68.66          40.16         -25.27          25.66           91.7
     1.128              -43.11          4.797          37.21          51.12         -15.54          8.777          87.03          42.78         -30.53          26.88          87.99
      1.15              -45.08          4.823          34.83          50.79         -15.41          10.08          102.1          44.93         -34.85          27.88          84.95
     1.171              -46.64          4.843          32.95          50.52          -15.3          11.11          114.1          46.63         -38.28          28.68          82.53
     1.192              -47.86          4.859          31.47          50.32         -15.22          11.93          123.5          47.97         -40.97           29.3          80.64
     1.213              -48.82          4.871          30.32          50.15         -15.15          12.56          130.8          49.01         -43.06          29.79          79.16
     1.235              -49.56          4.881          29.42          50.03          -15.1          13.05          136.5          49.82          -44.7          30.16          78.01
     1.256              -50.15          4.888          28.71          49.93         -15.06          13.44          141.0          50.46         -45.99          30.46           77.1
     1.277              -50.61          4.894          28.15          49.85         -15.03          13.75          144.6          50.97         -47.01           30.7          76.38
     1.299              -50.98          4.899           27.7          49.79         -15.01          13.99          147.4          51.38         -47.83          30.89           75.8
      1.32              -51.29          4.903          27.33          49.74         -14.98          14.19          149.7          51.71         -48.49          31.04          75.34
     1.341              -51.53          4.906          27.03          49.69         -14.97          14.36          151.6          51.98         -49.04          31.17          74.95
     1.362              -51.74          4.909          26.79          49.66         -14.95          14.49          153.2           52.2         -49.49          31.27          74.64
